<?xml version="1.0" encoding="utf-8"?>
<!-- Generator: Adobe Illustrator 21.0.2, SVG Export Plug-In . SVG Version: 6.00 Build 0)  -->
<svg version="1.1" id="Ebene_1" xmlns="http://www.w3.org/2000/svg" xmlns:xlink="http://www.w3.org/1999/xlink" x="0px" y="0px"
	 width="300px" height="83px" viewBox="0 0 300 83" style="enable-background:new 0 0 300 83;" xml:space="preserve">
<style type="text/css">
	.st0{fill:#F5A506;}
	.st1{fill:#F6A609;}
	.st2{fill:#073D60;}
</style>
<circle class="st0" cx="288.4" cy="18.3" r="4.4"/>
<path class="st1" d="M288.4,18.3"/>
<g>
	<path class="st2" d="M27.6,26c0-1.5-0.3-2.7-0.8-3.7c-0.5-1-1.2-1.8-2.1-2.3c-0.9-0.6-1.9-1-3-1.2c-1.2-0.2-2.4-0.4-3.7-0.4H8.7
		v25.2h5.5v-9.8h4c1.3,0,2.6-0.1,3.7-0.4c1.1-0.2,2.1-0.7,2.9-1.3c0.8-0.6,1.5-1.4,2-2.4C27.4,28.7,27.6,27.5,27.6,26z M21.5,27.5
		c-0.2,0.4-0.5,0.7-0.9,0.9s-0.8,0.4-1.2,0.5C18.9,29,18.5,29,18,29h-3.7v-6h2.8c0.5,0,1.1,0,1.6,0.1c0.6,0.1,1.1,0.2,1.5,0.4
		c0.5,0.2,0.8,0.5,1.1,0.9c0.3,0.4,0.4,0.9,0.4,1.5C21.9,26.6,21.7,27.1,21.5,27.5z"/>
	<path class="st2" d="M37.3,18.4L26.4,43.5h6.1l2.1-5.3h9.8l2.2,5.3h6.3L41.9,18.4H37.3z M36.4,33.5l3.1-7.8l3.1,7.8H36.4z"/>
	<path class="st2" d="M74.1,30.5c0.9-1.2,1.4-2.8,1.4-4.5c0-1.5-0.3-2.7-0.8-3.7c-0.5-1-1.2-1.8-2.1-2.3c-0.9-0.6-1.9-1-3-1.2
		c-1.1-0.2-2.4-0.4-3.6-0.4h-9.7v25.2h5.5V33.5h2.7l5.3,10.1h6.6l-6.4-10.6C71.9,32.6,73.2,31.8,74.1,30.5z M69.3,27.6
		c-0.3,0.4-0.7,0.7-1.1,0.8c-0.5,0.2-1,0.3-1.5,0.3c-0.6,0-1.1,0.1-1.6,0.1h-3.3v-5.7h3.6c0.5,0,1,0,1.5,0.1c0.5,0.1,1,0.2,1.4,0.4
		c0.4,0.2,0.7,0.5,1,0.9c0.3,0.4,0.4,0.9,0.4,1.5C69.8,26.7,69.6,27.2,69.3,27.6z"/>
	<path class="st2" d="M100.3,30.5c0.9-1.2,1.4-2.8,1.4-4.5c0-1.5-0.3-2.7-0.8-3.7c-0.5-1-1.2-1.8-2.1-2.3c-0.9-0.6-1.9-1-3-1.2
		c-1.1-0.2-2.4-0.4-3.6-0.4h-9.7v25.2H88V33.5h2.7L96,43.5h6.6l-6.4-10.6C98,32.6,99.4,31.8,100.3,30.5z M95.5,27.6
		c-0.3,0.4-0.7,0.7-1.1,0.8c-0.5,0.2-1,0.3-1.5,0.3c-0.6,0-1.1,0.1-1.6,0.1H88v-5.7h3.6c0.5,0,1,0,1.5,0.1c0.5,0.1,1,0.2,1.4,0.4
		c0.4,0.2,0.7,0.5,1,0.9c0.3,0.4,0.4,0.9,0.4,1.5C95.9,26.7,95.8,27.2,95.5,27.6z"/>
	<path class="st2" d="M129.4,21.3c-1.2-1.1-2.6-2-4.3-2.6c-1.7-0.6-3.5-0.9-5.4-0.9c-2,0-3.8,0.3-5.4,0.9c-1.7,0.6-3.1,1.5-4.3,2.6
		c-1.2,1.1-2.1,2.5-2.8,4.2c-0.7,1.6-1,3.5-1,5.5s0.3,3.8,1,5.5c0.7,1.6,1.6,3,2.8,4.2s2.6,2,4.3,2.6c1.7,0.6,3.5,0.9,5.4,0.9
		c2,0,3.8-0.3,5.4-0.9c1.7-0.6,3.1-1.5,4.3-2.6c1.2-1.1,2.1-2.5,2.8-4.2c0.7-1.6,1-3.5,1-5.5s-0.3-3.8-1-5.5
		C131.6,23.8,130.6,22.5,129.4,21.3z M127,34.2c-0.4,1-0.9,1.8-1.6,2.6c-0.7,0.7-1.5,1.3-2.5,1.7c-1,0.4-2,0.6-3.2,0.6
		c-1.2,0-2.3-0.2-3.2-0.6c-1-0.4-1.8-1-2.5-1.7c-0.7-0.7-1.2-1.6-1.6-2.6c-0.4-1-0.6-2.1-0.6-3.2c0-1.2,0.2-2.2,0.6-3.2
		c0.4-1,0.9-1.9,1.6-2.6c0.7-0.7,1.5-1.3,2.5-1.7c1-0.4,2-0.6,3.2-0.6c1.2,0,2.3,0.2,3.2,0.6c1,0.4,1.8,1,2.5,1.7
		c0.7,0.7,1.2,1.6,1.6,2.6c0.4,1,0.6,2.1,0.6,3.2C127.5,32.1,127.3,33.2,127,34.2z"/>
	<polygon class="st2" points="134.9,23.3 143.7,23.3 143.7,43.5 149.2,43.5 149.2,23.3 158,23.3 158,18.4 134.9,18.4 	"/>
	<polygon class="st2" points="176.8,34.8 176.8,34.8 171,18.4 162.6,18.4 162.6,43.5 168.1,43.5 168.1,24.2 168.2,24.2 174.6,43.5 
		178.8,43.5 185.4,24.2 185.5,24.2 185.5,43.5 191,43.5 191,18.4 182.7,18.4 	"/>
	<polygon class="st2" points="215,38.4 202.8,38.4 202.8,33.3 213.7,33.3 213.7,28.2 202.8,28.2 202.8,23.5 214.4,23.5 214.4,18.4 
		197.3,18.4 197.3,43.5 215,43.5 	"/>
	<path class="st2" d="M242.7,36.4c0.8-1.6,1.2-3.3,1.2-5.4c0-2.3-0.4-4.3-1.2-5.9c-0.8-1.6-1.9-2.9-3.2-3.9c-1.3-1-2.9-1.7-4.7-2.2
		c-1.8-0.4-3.7-0.7-5.7-0.7h-8.3v25.2h9.1c1.9,0,3.7-0.3,5.4-0.8c1.7-0.5,3.2-1.3,4.5-2.4C240.9,39.3,241.9,38,242.7,36.4z
		 M237.4,34.3c-0.5,1-1.1,1.8-1.9,2.4c-0.8,0.6-1.8,1-2.9,1.3s-2.3,0.4-3.6,0.4h-2.9V23.5h3.3c1.2,0,2.3,0.1,3.3,0.4
		c1.1,0.3,2,0.7,2.8,1.3c0.8,0.6,1.4,1.3,1.9,2.3c0.5,0.9,0.7,2,0.7,3.2C238.1,32.2,237.8,33.4,237.4,34.3z"/>
	<rect x="248.5" y="18.4" class="st2" width="5.5" height="25.2"/>
	<path class="st2" d="M272.9,18.4h-4.6l-10.9,25.2h6.1l2.1-5.3h9.8l2.2,5.3h6.3L272.9,18.4z M267.4,33.5l3.1-7.8l3.1,7.8H267.4z"/>
	<polygon class="st2" points="175.3,63 172.2,52 170.3,52 167.2,63 164.4,52 162.6,52 166.4,65.7 168.1,65.7 171.2,54.4 174.4,65.7 
		176.1,65.7 179.9,52 178.1,52 	"/>
	<path class="st2" d="M187.4,62.2c-0.4,1.5-1.3,2.3-2.8,2.3c-2.1,0-2.8-2-2.9-3.3h7.3l0-0.2c0.1-1.8-0.5-3.4-1.4-4.4
		c-0.8-0.8-1.8-1.2-3-1.2c-3.3,0-4.5,2.8-4.5,5.3c0,3.2,1.7,5.3,4.5,5.3c2.4,0,3.8-1.2,4.4-3.6l0.1-0.3h-1.6L187.4,62.2z
		 M184.7,56.8c1.7,0,2.7,1.4,2.8,2.9h-5.7C182,58.3,183,56.8,184.7,56.8z"/>
	<path class="st2" d="M192.6,57.3v-1.6h-1.5v10h1.6v-5.3c0-0.9,0.3-1.8,1-2.4c0.6-0.6,1.4-0.9,2.3-0.8l0.2,0v-1.6l-0.2,0
		C194.5,55.5,193.3,56.1,192.6,57.3z"/>
	<path class="st2" d="M202.6,55.4c-1.3,0-2.5,0.6-3.1,1.5V52h-1.6v13.6h1.5v-1.2c0.7,0.9,1.9,1.5,3.2,1.5c2.7,0,4.5-2.1,4.5-5.3
		C207.1,57.5,205.3,55.4,202.6,55.4z M202.6,64.5c-2.9,0-3.1-2.9-3.1-3.8c0-0.9,0.2-3.8,3.1-3.8c2.1,0,2.9,2.1,2.9,3.8
		C205.5,62.4,204.7,64.5,202.6,64.5z"/>
	<path class="st2" d="M215.9,62.2c-0.4,1.5-1.3,2.3-2.8,2.3c-2.1,0-2.8-2-2.9-3.3h7.3l0-0.2c0.1-1.8-0.5-3.4-1.4-4.4
		c-0.8-0.8-1.8-1.2-3-1.2c-3.3,0-4.5,2.8-4.5,5.3c0,3.2,1.7,5.3,4.5,5.3c2.4,0,3.8-1.2,4.4-3.6l0.1-0.3h-1.6L215.9,62.2z
		 M213.1,56.8c1.7,0,2.6,1.4,2.8,2.9h-5.7C210.5,58.3,211.4,56.8,213.1,56.8z"/>
	<path class="st2" d="M227.9,64.2c-0.3,0-0.5-0.1-0.5-0.5v-5.1c0-2.2-1.3-3.3-3.7-3.3c-2.5,0-4,1.2-4.1,3.4l0,0.2h1.6l0-0.2
		c0-1.7,1.5-2,2.3-2c1.6,0,2.3,0.5,2.3,1.7c0,0.8-0.3,1-1.3,1.1l-0.5,0.1c-2.4,0.3-4.8,0.5-4.8,3.2c0,1.9,1.3,3,3.4,3
		c1.7,0,2.6-0.6,3.3-1.6c0.1,0.7,0.5,1.3,1.6,1.3c0.3,0,0.5,0,0.8-0.1l0.2,0V64l-0.3,0.1C228.2,64.2,228,64.2,227.9,64.2z
		 M225.9,61.7c0,0.7-0.2,1.4-0.7,1.9c-0.6,0.6-1.4,0.9-2.4,0.9c-0.9,0-1.9-0.6-1.9-1.7c0-1.4,1.6-1.6,3.2-1.8c0.3,0,0.7-0.1,1-0.2
		c0.2,0,0.5-0.1,0.7-0.2V61.7z"/>
	<path class="st2" d="M237.1,56.8c-0.7-0.8-1.7-1.4-2.8-1.4c-2.7,0-4.5,2.1-4.5,5c0,3.2,1.7,5.1,4.5,5.1c1.1,0,2.2-0.5,2.8-1.4v0.5
		c0,2.3-0.9,3.4-2.8,3.4c-0.8,0-2.3-0.2-2.6-1.7l0-0.2H230l0,0.2c0.2,2.3,2.4,3.1,4.2,3.1c3,0,4.4-1.6,4.5-4.8v-9h-1.6V56.8z
		 M234.2,64.1c-2,0-2.9-1.8-2.9-3.6c0-1.7,0.8-3.7,2.9-3.7c2,0,2.8,1.9,2.8,3.7C237.1,62.3,236.2,64.1,234.2,64.1z"/>
	<path class="st2" d="M247.8,62.2c-0.4,1.5-1.3,2.3-2.8,2.3c-2.1,0-2.8-2-2.9-3.3h7.3l0-0.2c0.1-1.8-0.5-3.4-1.4-4.4
		c-0.8-0.8-1.8-1.2-3-1.2c-3.3,0-4.5,2.8-4.5,5.3c0,3.2,1.7,5.3,4.5,5.3c2.4,0,3.8-1.2,4.4-3.6l0.1-0.3h-1.6L247.8,62.2z M245,56.8
		c1.7,0,2.7,1.4,2.8,2.9h-5.7C242.4,58.3,243.3,56.8,245,56.8z"/>
	<path class="st2" d="M255.9,55.4c-1.2,0-2.2,0.5-2.9,1.3v-1.1h-1.6v10h1.6v-5.8c0-1.8,1.1-3,2.8-3c1.5,0,2.2,0.8,2.2,2.7v6.2h1.6
		v-6.4C259.6,56.6,258.4,55.4,255.9,55.4z"/>
	<path class="st2" d="M264.3,52.8h-1.6v2.9H261v1.4h1.7v6.3c0,0.9,0.1,1.5,0.5,1.8c0.4,0.4,0.9,0.5,1.8,0.5c0.2,0,0.4,0,0.5,0
		c0.2,0,0.3,0,0.5,0h0.2v-1.5l-0.3,0c-0.3,0-0.6,0.1-1,0.1c-0.6,0-0.7-0.3-0.7-1v-6.2h1.9v-1.4h-1.9V52.8z"/>
	<path class="st2" d="M274.6,60.9c0,1.7-0.7,3.6-2.6,3.6c-1.6,0-2.3-0.7-2.3-2.4v-6.4H268v6.4c0,2.6,1.2,3.8,3.6,3.8
		c1.3,0,2.4-0.5,3.1-1.5v1.2h1.5v-10h-1.6V60.9z"/>
	<path class="st2" d="M280.2,57.3v-1.6h-1.5v10h1.6v-5.3c0-0.9,0.3-1.8,1-2.4c0.6-0.6,1.4-0.9,2.3-0.8l0.2,0v-1.6l-0.2,0
		C282.2,55.5,281,56.1,280.2,57.3z"/>
</g>
</svg>
